<?xml version="1.0" encoding="UTF-8"?>
<svg id="Layer_2" data-name="Layer 2" xmlns="http://www.w3.org/2000/svg" xmlns:xlink="http://www.w3.org/1999/xlink" viewBox="0 0 1426.19 271.39">
  <defs>
    <style>
      .cls-1 {
        fill: url(#linear-gradient-2);
      }

      .cls-2 {
        fill: #231f20;
      }

      .cls-3 {
        fill: url(#linear-gradient);
      }
    </style>
    <linearGradient id="linear-gradient" x1="88.96" y1="-1.92" x2="187.73" y2="262.41" gradientUnits="userSpaceOnUse">
      <stop offset="0" stop-color="#2563eb"/>
      <stop offset=".49" stop-color="#5fffcb"/>
      <stop offset="1" stop-color="#7e3fff"/>
    </linearGradient>
    <linearGradient id="linear-gradient-2" x1="126.22" y1="180.36" x2="151.51" y2="108.74" gradientUnits="userSpaceOnUse">
      <stop offset="0" stop-color="#0377ff"/>
      <stop offset=".49" stop-color="#00deff"/>
      <stop offset="1" stop-color="#883ae2"/>
    </linearGradient>
  </defs>
  <g id="Layer_1-2" data-name="Layer 1">
    <g>
      <g>
        <path class="cls-2" d="M417.25,90.7v10.17c0,3.24-2.63,5.87-5.87,5.87h-67.31c-3.24,0-5.87,2.63-5.87,5.87v68.09c0,3.24,2.63,5.87,5.87,5.87h93.92c3.24,0,5.87-2.63,5.87-5.87v-90c0-3.24-2.63-5.87-5.87-5.87h-14.87c-3.24,0-5.87,2.63-5.87,5.87ZM411.38,174.83h-40.7c-3.24,0-5.87-2.63-5.87-5.87v-44.61c0-3.24,2.63-5.87,5.87-5.87h40.7c3.24,0,5.87,2.63,5.87,5.87v44.61c0,3.24-2.63,5.87-5.87,5.87Z"/>
        <rect class="cls-2" x="459.5" y="118.48" width="26.61" height="68.09" rx="5.87" ry="5.87"/>
        <path class="cls-2" d="M531.12,174.83h56.35c3.24,0,5.87,2.63,5.87,5.87h0c0,3.24-2.63,5.87-5.87,5.87h-82.96c-3.24,0-5.87-2.63-5.87-5.87v-68.09c0-3.24,2.63-5.87,5.87-5.87h82.96c3.24,0,5.87,2.63,5.87,5.87h0c0,3.24-2.63,5.87-5.87,5.87h-56.35c-3.24,0-5.87,2.63-5.87,5.87v44.61c0,3.24,2.63,5.87,5.87,5.87Z"/>
        <path class="cls-2" d="M703.68,112.61v39.91c0,3.24-2.63,5.87-5.87,5.87h-50.7c-3.24,0-5.87-2.63-5.87-5.87h0c0-3.24,2.63-5.87,5.87-5.87h24.09c3.24,0,5.87-2.63,5.87-5.87v-16.43c0-3.24-2.63-5.87-5.87-5.87h-31.3c-3.24,0-5.87,2.63-5.87,5.87v44.61c0,3.24,2.63,5.87,5.87,5.87h57.91c3.24,0,5.87,2.63,5.87,5.87h0c0,3.24-2.63,5.87-5.87,5.87h-84.52c-3.24,0-5.87-2.63-5.87-5.87v-68.09c0-3.24,2.63-5.87,5.87-5.87h84.52c3.24,0,5.87,2.63,5.87,5.87Z"/>
        <path class="cls-2" d="M811.29,112.61h0c0,3.24-2.63,5.87-5.87,5.87h-56.74c-3.24,0-5.87,2.63-5.87,5.87v16.43c0,3.24,2.63,5.87,5.87,5.87h47.94c3.24,0,5.87,2.63,5.87,5.87h0c0,3.24-2.63,5.87-5.87,5.87h-47.94c-3.24,0-5.87,2.63-5.87,5.87v16.44c0,3.24-2.63,5.87-5.87,5.87h-14.87c-3.24,0-5.87-2.63-5.87-5.87v-68.09c0-3.24,2.63-5.87,5.87-5.87h83.35c3.24,0,5.87,2.63,5.87,5.87Z"/>
        <path class="cls-2" d="M821.86,112.61v68.09c0,3.24,2.63,5.87,5.87,5.87h91.17c3.24,0,5.87-2.63,5.87-5.87v-68.09c0-3.24-2.63-5.87-5.87-5.87h-91.17c-3.24,0-5.87,2.63-5.87,5.87ZM892.29,174.83h-37.95c-3.24,0-5.87-2.63-5.87-5.87v-44.61c0-3.24,2.63-5.87,5.87-5.87h37.95c3.24,0,5.87,2.63,5.87,5.87v44.61c0,3.24-2.63,5.87-5.87,5.87Z"/>
        <path class="cls-2" d="M1025.5,112.61h0c0,3.24-2.63,5.87-5.87,5.87h-50.25c-3.24,0-5.87,2.63-5.87,5.87v56.35c0,3.24-2.63,5.87-5.87,5.87h-14.87c-3.24,0-5.87-2.63-5.87-5.87v-68.09c0-3.24,2.63-5.87,5.87-5.87h76.86c3.24,0,5.87,2.63,5.87,5.87Z"/>
        <path class="cls-2" d="M1426.19,112.61h0c0,3.24-2.63,5.87-5.87,5.87h-20.51c-3.24,0-5.87,2.63-5.87,5.87v56.35c0,3.24-2.63,5.87-5.87,5.87h-14.86c-3.24,0-5.87-2.63-5.87-5.87v-56.35c0-3.24-2.63-5.87-5.87-5.87h-23.79c-3.24,0-5.87-2.63-5.87-5.87h0c0-3.24,2.63-5.87,5.87-5.87h82.64c3.24,0,5.87,2.63,5.87,5.87Z"/>
        <rect class="cls-2" x="1296.12" y="106.74" width="26.61" height="79.83" rx="5.87" ry="5.87"/>
        <path class="cls-2" d="M1210.81,140.78v-16.43c0-3.24-2.63-5.87-5.87-5.87h-30.52c-3.24,0-5.87,2.63-5.87,5.87v44.61c0,3.24,2.63,5.87,5.87,5.87h57.13c3.24,0,5.87,2.63,5.87,5.87h0c0,3.24-2.63,5.87-5.87,5.87h-83.74c-3.24,0-5.87-2.63-5.87-5.87v-68.09c0-3.24,2.63-5.87,5.87-5.87h83.74c3.24,0,5.87,2.63,5.87,5.87v39.91c0,3.24-2.63,5.87-5.87,5.87h-49.14c-3.24,0-5.87-2.63-5.87-5.87h0c0-3.24,2.63-5.87,5.87-5.87h22.53c3.24,0,5.87-2.63,5.87-5.87Z"/>
        <path class="cls-2" d="M1062.9,124.35v44.61c0,3.24,2.63,5.87,5.87,5.87h55.17c3.24,0,5.87,2.63,5.87,5.87h0c0,3.24-2.63,5.87-5.87,5.87h-81.78c-3.24,0-5.87-2.63-5.87-5.87v-68.09c0-3.24,2.63-5.87,5.87-5.87h81.78c3.24,0,5.87,2.63,5.87,5.87h0c0,3.24-2.63,5.87-5.87,5.87h-55.17c-3.24,0-5.87,2.63-5.87,5.87Z"/>
        <rect class="cls-2" x="459.5" y="95" width="26.61" height="11.74" rx="5.87" ry="5.87"/>
      </g>
      <g>
        <path class="cls-3" d="M278.95,132.31l-8.66-4.29c-3.86-1.91-7.28-4.11-10.47-7.04-6.78-6.22-11.18-14.68-11.21-23.97l-.08-29.5c-.04-12.66-6-24.19-16.2-31.59-5.39-3.91-11.36-6.64-17.91-7.84-2.98-.54-5.73-1.06-8.85-1.07l-24.28-.08c-6.04-.02-11.73-.95-17.35-3.17-10.31-4.08-18.07-12.36-21.48-22.9-.18-.54-.54-.84-1.03-.87-.34-.02-.92.23-1.11.76-3.61,10.67-11.67,19.13-22.21,23.14-4.04,1.54-8.11,2.31-12.42,2.84l-6.03.2-23.86.13c-21.63.11-42.29,17.12-42.42,39.84l-.18,32.28c-.44,10.51-6.61,19.48-15.13,25.2-4.7,3.16-9.6,5.23-14.6,7.74-2.41,1.21-3.85,3.97-3.39,6.55.37,2.11,1.97,3.77,3.84,4.65,9.04,4.27,17.65,8.09,23.6,16.54,3.64,5.17,5.82,11.07,5.82,17.48l.02,28.64c0,23.33,20.27,40.08,42.44,40.19l25.67.13c8.37.04,17.44,2.5,24.3,7.14,6.08,4.11,10.55,9.93,13.67,16.57.36.77.84,1.21,1.57,1.34.59.11,1.47-.05,1.81-.77,1.61-3.38,3.33-6.48,5.68-9.43,4.24-5.33,9.61-9.35,16.04-11.73,5.17-1.91,10.44-3.08,16-3.1l24.72-.11c22.95-.1,43.15-16.61,43.24-39.64l.11-28.67c.02-4.35,1.14-8.43,2.89-12.44,4.86-11.1,14.64-16.57,25.2-21.42,2.03-.93,3.95-2.04,4.95-4.15,1.31-2.78.1-6.22-2.7-7.6ZM242.3,139.24c-4.02,2.52-7.73,5.15-11.05,8.53-6.88,7.01-10.95,15.88-11.03,25.74l-.18,22.23c-.11,12.99-10.59,24.06-23.82,24.05l-22.02-.02c-13.18-.3-25.3,5.6-32.83,16.64l-2.71-3.06c-7.72-9.3-19.06-13.63-31.07-13.62l-21.64.02c-13.18,0-23.75-10.56-23.81-23.68l-.11-22.64c-.05-9.58-3.72-18.24-10.33-25.09-3.49-3.62-7.41-6.48-11.71-9.08-.71-.43-1.08-1.14-1.01-1.88.06-.59.53-1.09,1.17-1.47,13.04-7.69,21.84-18.93,21.9-34.56l.09-24.45c.05-12.95,10.45-23.34,23.36-23.4l26.37-.13c6.35-.03,12.23-2.15,17.6-5.28,4.74-2.75,8.42-6.45,11.8-11.06,2.47,3.23,4.74,5.99,7.77,8.3.43.33,1.12.32,1.32,1.07,5.91,4.19,12.75,6.91,20.13,6.97l26.93.2c12.24.09,22.57,11.28,22.63,23.92l.12,24.1c.05,10.3,4.27,19.54,11.67,26.58,3.23,3.08,6.7,5.53,10.48,7.89.61.38,1.04,1.02,1.04,1.6,0,.64-.43,1.19-1.05,1.58Z"/>
        <path class="cls-1" d="M191.57,137.66c-.02.59-.58,1.3-1.38,1.39-9.86,1.11-19.14,4.62-26.89,10.79-.77.01-1.14.38-1.37,1.06-11.01,9.22-18.07,22.28-19.51,36.61-.08.86-.56,1.26-1.25,1.22-.47-.02-1.09-.41-1.16-1.1-1.04-9.49-4.15-18.42-9.54-26.29l-1.09-1.48c-8.87-11.8-21.98-19.29-36.71-20.75-.89-.09-1.52-.72-1.59-1.5-.05-.63.58-1.44,1.43-1.55,7.57-.96,14.79-3.11,21.37-6.96,15.43-9.02,25.12-24.94,26.37-42.72.05-.72.74-1.14,1.21-1.15.41,0,1.08.34,1.13.95.53,6.65,2.2,12.97,4.98,19.03,5.69,12.41,16.06,22.3,28.82,27.43l1.7.69c4,1.17,7.91,2.22,12.08,2.73.88.11,1.43.82,1.4,1.61Z"/>
      </g>
    </g>
  </g>
</svg>